<?xml version="1.0" encoding="utf-8"?>
<!-- Generator: Adobe Illustrator 19.2.1, SVG Export Plug-In . SVG Version: 6.00 Build 0)  -->
<svg version="1.1" id="_x24__1_" xmlns="http://www.w3.org/2000/svg" xmlns:xlink="http://www.w3.org/1999/xlink" x="0px" y="0px"
	 viewBox="0 0 512 512" enable-background="new 0 0 512 512" xml:space="preserve">
<g id="_x24_">
	<g>
		<path fill-rule="evenodd" clip-rule="evenodd" fill="#F1425D" d="M356.5,269.7c-14.3-13.9-39.9-26.2-76.9-36.8l13.7-106
			c21.6,1.5,45.4,3.7,71.4,6.6l4.9-47.2l-70.3-9.9L309.3,0h-35.2l-9.3,73.6h-9.9c-37.7,0-67.3,8.4-88.7,25.3
			c-21.4,16.8-32.1,41.4-32.1,73.6c0,32.2,7.9,55.9,23.6,70.9c15.7,15,42.7,27.7,80.8,37.9L223.6,395c-24.2-1.5-50.7-4.2-79.7-8.2
			l-6,47.2l11,2.2c22,4.4,44.7,7.7,68.1,9.9l-7.7,62.1c0,1.5,11.7,2.7,35.2,3.8l7.7-63.7h4.4c37.4,0,66.9-9.4,88.7-28.3
			c21.8-18.9,32.7-47.3,32.7-85.4C378,305.3,370.8,283.7,356.5,269.7z M245.6,223.6c-20.1-6.6-34-13.4-41.5-20.3
			c-7.5-7-11.3-17.2-11.3-30.8c0-30.8,21.8-46.5,65.4-47.2L245.6,223.6z M258.7,396.1l13.7-105.5c17.2,5.1,29.2,11.2,36,18.1
			c6.8,7,10.2,16.7,10.2,29.1C318.6,375.2,298.7,394.6,258.7,396.1z"/>
	</g>
</g>
</svg>
