<?xml version="1.0" encoding="utf-8"?>
<!-- Generator: Adobe Illustrator 19.2.1, SVG Export Plug-In . SVG Version: 6.00 Build 0)  -->
<svg version="1.1" id="Hand_1_" xmlns="http://www.w3.org/2000/svg" xmlns:xlink="http://www.w3.org/1999/xlink" x="0px" y="0px"
	 viewBox="0 0 512 512" enable-background="new 0 0 512 512" xml:space="preserve">
<g id="Hand">
	<g>
		<path fill-rule="evenodd" clip-rule="evenodd" fill="#37474F" d="M488.7,82.5c-15.6-15.9-34.4-23.8-56.7-23.8
			c-7.1,0-13.7,0.8-19.7,2.3c-7.6-10.9-17.1-19.3-28.7-25.3c-11.6-6-23.9-9-37-9c-14.7,0-28.3,3.8-41,11.3
			c-14.4-11.1-31-16.7-49.7-16.7c-22.7,0-42,7.7-58,23c-10.2-4.7-21.1-7-32.7-7c-21.1,0-39.4,7.2-54.8,21.7
			c-15.4,14.4-23.8,32.2-25.2,53.3c-1.1-0.2-2.9-0.3-5.3-0.3c-22,0-40.8,7.8-56.5,23.5C7.8,151.2,0,170,0,192v74.7
			c0,22.7,8.4,42.1,25.3,58.3L128,423.7c0,18.7,6,34.5,18,47.5c12,13,27.3,19.5,46,19.5h213.3c17.8,0,32.9-6.2,45.3-18.7
			c12.4-12.4,18.7-27.6,18.7-45.3c0-10.4,0.7-18.3,2-23.7l36.3-145.3c2.9-12.7,4.3-24.7,4.3-36v-82C512,117.4,504.2,98.4,488.7,82.5
			z M469.3,221.7c0,9.1-1.1,17.7-3.3,25.7l-36,145.3c-2.2,8-3.3,16.6-3.3,25.7v8.3c0,5.8-2.1,10.8-6.3,15c-4.2,4.2-9.2,6.3-15,6.3
			H192c-5.8,0-10.8-2.1-15-6.3c-4.2-4.2-6.3-9.2-6.3-15c0-14-4.3-25.3-13-34L54.3,294c-7.8-7.8-11.7-16.9-11.7-27.3V192
			c0-10.2,3.7-19,11-26.3c7.3-7.3,16.1-11,26.3-11c10.7,0,19.6,3.7,26.7,11.2c7.1,7.4,10.7,16.5,10.7,27.2v57.3l10.7,10v-143
			c0-10.2,3.7-19,11-26.3c7.3-7.3,16.1-11,26.3-11c10.7,0,19.6,3.7,26.7,11.2c7.1,7.4,10.7,16.5,10.7,27.2v31h10.7v-42.7
			c0-11.8,4.2-21.8,12.5-30.2C234.2,68.2,244.2,64,256,64c1.8,0,3.2,0.1,4.3,0.3c11.1,1.1,20.3,5.9,27.5,14.5
			c7.2,8.6,10.8,18.5,10.8,29.8v40.7h10.7v-42.7c0-10.2,3.7-19,11-26.3c7.3-7.3,16.1-11,26.3-11c2,0,4.6,0.2,7.7,0.7
			c8.7,1.8,15.8,6.3,21.3,13.5c5.6,7.2,8.3,15.3,8.3,24.2v41.7h10.7v-10.7c0-10.2,3.7-19,11-26.3c7.3-7.3,16.1-11,26.3-11
			c10.7,0,19.6,3.7,26.7,11.2c7.1,7.4,10.7,16.5,10.7,27.2V221.7z"/>
	</g>
</g>
</svg>
