<?xml version="1.0" encoding="utf-8"?>
<!-- Generator: Adobe Illustrator 19.2.1, SVG Export Plug-In . SVG Version: 6.00 Build 0)  -->
<svg version="1.1" id="Layer_1" xmlns="http://www.w3.org/2000/svg" xmlns:xlink="http://www.w3.org/1999/xlink" x="0px" y="0px"
	 viewBox="0 0 512 512" enable-background="new 0 0 512 512" xml:space="preserve">
<path fill="#232323" d="M490.2,297L471,276.5c0-0.2,0-0.4,0-0.6c0.4-4.6,0.7-9.2,0.9-13.8c0-1.3,0-2.8,0-4.1c0-3.5,0-7-0.2-10.4
	c-0.1-1.5-0.1-2.9-0.2-4.4c-0.1-2.3-0.2-4.5-0.4-6.9l19.2-20.4c9.2-9.8,25.8-22.7,20.7-35.1l-21-51c-5.1-12.4-26-9.8-39.4-10.2
	l-28-1c-2.1-2.5-4.4-4.9-6.6-7.4c-0.1-0.1-0.2-0.2-0.3-0.4c-0.8-0.8-1.4-1.7-2.2-2.5c-1.2-1.3-2.6-2.5-3.8-3.8
	c-1.8-1.8-3.5-3.6-5.4-5.3c-3-2.9-6.1-5.6-9.2-8.3c-0.1-0.1-0.3-0.2-0.4-0.3c-0.2-0.2-0.3-0.3-0.5-0.5l-0.9-28.1
	c-0.4-13.3,2.2-34.3-10.1-39.4L332.1,1.2c-12.3-5.1-25.3,11.5-35.1,20.6L276.5,41c-4.6-0.5-9.2-0.7-13.8-0.9c-1.3-0.1-2.6,0-3.9,0
	c-3,0-5.9-0.1-9,0c-3.8,0.1-7.7,0.4-11.5,0.7c-0.5,0-1,0-1.4,0.1c-0.3,0.1-0.5,0-0.8,0.1l-20.5-19.3C206,12.6,193-4.1,180.7,0.9
	l-51,21c-12.4,5.1-9.7,26.1-10.2,39.4l-1,28.1c-0.3,0.2-0.6,0.5-0.9,0.8c-3.4,2.8-6.6,5.7-9.8,8.7c-1.2,1.2-2.3,2.3-3.5,3.5
	c-2.3,2.2-4.6,4.5-6.7,6.8c-1.1,1.2-2.1,2.5-3.2,3.7c-1.5,1.6-2.9,3.2-4.3,4.9l-28.1,0.9c-13.3,0.4-34.3-2.2-39.4,10.1L1.2,179.9
	c-5.1,12.3,11.5,25.3,20.6,35L41,235.5c-0.3,3.2-0.4,6.3-0.6,9.6c0,0.3-0.1,0.6,0,0.9c-0.3,5.5-0.4,10.9-0.2,16.3
	c0.1,2.4,0.3,4.7,0.4,7.1c0.1,1.9,0.2,3.9,0.4,5.8c0,0.2,0,0.4,0,0.5l-19.2,20.5c-9.1,9.7-25.8,22.7-20.7,35l21,51
	c5.1,12.4,26.1,9.8,39.4,10.3l28.1,1c0.2,0.3,0.4,0.4,0.6,0.7c2.8,3.4,5.8,6.8,9,10.1c1.1,1.2,2.3,2.2,3.4,3.4
	c2.3,2.3,4.6,4.6,7,6.9c1.2,1,2.4,2.1,3.6,3.2c1.7,1.5,3.3,3,4.9,4.3l0.9,28.1c0.4,13.3-2.2,34.3,10.1,39.4l51.1,21.3
	c12.3,5.1,25.3-11.5,35-20.6l20.6-19.2c0.2,0,0.4,0,0.7,0c2.6,0.3,5.3,0.4,7.9,0.5c0.8,0.1,1.6,0.1,2.3,0.2c1.2,0,2.4,0.1,3.6,0.2
	c1.4,0,2.8,0,4.2,0c3.4,0.1,6.9,0,10.3-0.1c1.5-0.1,3-0.2,4.5-0.2c2.3-0.1,4.5-0.2,6.8-0.3l20.5,19.2c9.8,9.2,22.7,25.8,35,20.7
	l51-21c12.4-5.1,9.8-26,10.3-39.4l1-28c2.4-2,4.7-4.1,7-6.1c0.3-0.4,0.7-0.6,1-0.9c0.8-0.7,1.6-1.4,2.3-2.1c1.4-1.2,2.5-2.5,3.8-3.7
	c1.8-1.8,3.7-3.6,5.5-5.5c2.6-2.8,5.2-5.7,7.8-8.8c0.3-0.3,0.5-0.5,0.8-0.9c0.2-0.2,0.3-0.3,0.5-0.5l28.1-0.9
	c13.3-0.4,34.3,2.2,39.4-10.1l21.3-51.1C515.9,319.8,499.3,306.8,490.2,297z M368.3,256c0,62-50.3,112.3-112.3,112.3
	S143.7,318,143.7,256S194,143.7,256,143.7S368.3,194,368.3,256z"/>
</svg>