<svg xmlns="http://www.w3.org/2000/svg" viewBox="0 0 512 512"><g fill="#FFF"><path d="M34.6 235.9H5.3v33.4H0v-38.7h39.2c-1.5 1.3-3 3-4.6 5.3m5.9 40.2h29.3v-33.4h5.3v38.7H35.4c2-1.1 3.6-2.9 5.1-5.3M498 249.6c0 1.8-1.5 3.3-3.3 3.3h-8.2v-6.6h8.4c1.8.1 3.1 1.6 3.1 3.3m13.5-.2c0-5.9-5.3-9.4-8.9-9.4h-30.3v31.8h14.3v-12.2h5.9s6.4 11.2 7.1 12.2H512c-1-1.8-5.3-10.2-6.9-13.2 3.8-2.6 6.4-4.7 6.4-9.2"/><path d="M28.5 281.5H0v-10.1h11.7c9.7 0 13.3-15.8 24.7-33.9 2.8-4.6 6.1-6.9 9.2-6.9h29.5v9.9h-11c-7.4 0-13.8 15.8-25.2 33.9-3 4.9-6.8 7.1-10.4 7.1m111.3-9.6v-32.1h28.8v6.8h-14.5v5.9h14.5v6.6h-14.5v5.6h14.5v6.9h-28.8v.3zm40.5 0v-32.1h15.3l13.2 19.4v-19.4h6.6v31.8h-14.8l-13.5-19.4v19.4h-6.9l.1.3zm94.3 0v-32.1h14V252h11.5v-12.2h14.3v31.8h-14.3v-12.2h-11.5v12.2h-14v.3zm-47.4 0v-32.1h15.3l13.2 19.4v-19.4h6.6v31.8h-14.8L234 252.1v19.4h-6.9v.3h.1zm204.3 0v-32.1h28.8v6.8h-14.5v5.9h14.5v6.6h-14.5v5.6h14.5v6.9h-28.8v.3zm-64.2 0h15v-32.1h-15v32.1zm-40.2 0v-32.1h28.8v6.8h-14.5v5.9h14.5v6.6h-14.5v5.6h14.5v6.9h-28.8v.3zm-226 0v-6.1h8.9c2.3 0 2.3-.5 2.3-1.3v-.5c-.8-1.8-3.8-5.1-8.7-12.2-1.3-1.8-2.3-3.3-2.3-5.1 0-4.1 3.1-6.6 7.1-6.6H129v6.4h-9.7c-.8 0-1.3.5-1.3 1.3v.3c.3 1.8 3.6 5.1 8.7 12.5 1.3 1.8 2.5 3.3 2.5 5.1 0 4.1-3.1 6.4-7.1 6.4-.1-.2-11.5-.2-21-.2m291.9 0v-6.1h8.9c2.3 0 2.3-.5 2.3-1.3v-.5c-.8-1.8-3.8-5.1-8.7-12.2-1.3-1.8-2.3-3.3-2.3-5.1 0-4.1 3.1-6.6 7.1-6.6h20.6v6.4h-9.7c-.8 0-1.3.5-1.3 1.3v.3c.3 1.8 3.6 5.1 8.7 12.5 1.3 1.8 2.5 3.3 2.5 5.1 0 4.1-3.1 6.4-7.1 6.4-.1-.2-11.5-.2-21-.2"/><path d="M34.6 235.9H5.3v33.4H0v-38.7h39.2c-1.5 1.3-3 3-4.6 5.3m5.9 40.2h29.3v-33.4h5.3v38.7H35.4c2-1.1 3.6-2.9 5.1-5.3M498 249.6c0 1.8-1.5 3.3-3.3 3.3h-8.2v-6.6h8.4c1.8.1 3.1 1.6 3.1 3.3m13.5-.2c0-5.9-5.3-9.4-8.9-9.4h-30.3v31.8h14.3v-12.2h5.9s6.4 11.2 7.1 12.2H512c-1-1.8-5.3-10.2-6.9-13.2 3.8-2.6 6.4-4.7 6.4-9.2"/><path d="M28.5 281.5H0v-10.1h11.7c9.7 0 13.3-15.8 24.7-33.9 2.8-4.6 6.1-6.9 9.2-6.9h29.5v9.9h-11c-7.4 0-13.8 15.8-25.2 33.9-3 4.9-6.8 7.1-10.4 7.1m111.3-9.6v-32.1h28.8v6.8h-14.5v5.9h14.5v6.6h-14.5v5.6h14.5v6.9h-28.8v.3zm40.5 0v-32.1h15.3l13.2 19.4v-19.4h6.6v31.8h-14.8l-13.5-19.4v19.4h-6.9l.1.3zm94.3 0v-32.1h14V252h11.5v-12.2h14.3v31.8h-14.3v-12.2h-11.5v12.2h-14v.3zm-47.4 0v-32.1h15.3l13.2 19.4v-19.4h6.6v31.8h-14.8L234 252.1v19.4h-6.9v.3h.1zm204.3 0v-32.1h28.8v6.8h-14.5v5.9h14.5v6.6h-14.5v5.6h14.5v6.9h-28.8v.3zm-64.2 0h15v-32.1h-15v32.1zm-40.2 0v-32.1h28.8v6.8h-14.5v5.9h14.5v6.6h-14.5v5.6h14.5v6.9h-28.8v.3zm-226 0v-6.1h8.9c2.3 0 2.3-.5 2.3-1.3v-.5c-.8-1.8-3.8-5.1-8.7-12.2-1.3-1.8-2.3-3.3-2.3-5.1 0-4.1 3.1-6.6 7.1-6.6H129v6.4h-9.7c-.8 0-1.3.5-1.3 1.3v.3c.3 1.8 3.6 5.1 8.7 12.5 1.3 1.8 2.5 3.3 2.5 5.1 0 4.1-3.1 6.4-7.1 6.4-.1-.2-11.5-.2-21-.2m291.9 0v-6.1h8.9c2.3 0 2.3-.5 2.3-1.3v-.5c-.8-1.8-3.8-5.1-8.7-12.2-1.3-1.8-2.3-3.3-2.3-5.1 0-4.1 3.1-6.6 7.1-6.6h20.6v6.4h-9.7c-.8 0-1.3.5-1.3 1.3v.3c.3 1.8 3.6 5.1 8.7 12.5 1.3 1.8 2.5 3.3 2.5 5.1 0 4.1-3.1 6.4-7.1 6.4-.1-.2-11.5-.2-21-.2"/></g></svg>